<?xml version="1.0" encoding="utf-8"?>
<!-- Generator: Adobe Illustrator 19.0.0, SVG Export Plug-In . SVG Version: 6.00 Build 0)  -->
<svg version="1.1" id="Layer_1" xmlns="http://www.w3.org/2000/svg" xmlns:xlink="http://www.w3.org/1999/xlink" x="0px" y="0px"
	 viewBox="0 0 189.4 94.4" style="enable-background:new 0 0 189.4 94.4;" xml:space="preserve">
<style type="text/css">
	.st0{fill:#F15757;}
	.st1{fill:#7BB24A;}
	.st2{fill:#C9DE7B;}
	.st3{fill:#B84242;}
	.st4{fill:#3F1514;}
</style>
<g>
	<path class="st0" d="M94.7,81.3C11.6,81.3,0,0,0,0h189.4C189.4,0,176.7,81.3,94.7,81.3z"/>
	<path class="st1" d="M94.6,94.4C42.4,94.4,0,57.9,0,12.8c0-45.1,0,58.4,94.6,56.2c104-2.5,94.6-101.3,94.6-56.2
		S146.8,94.4,94.6,94.4z"/>
	<path class="st2" d="M94.7,75C42.5,75,0,35.3,0,11.8c0-45.1,0,58.4,94.6,56.2c104-2.5,94.2-101.3,94.6-56.2
		C189.4,35.3,147,75,94.7,75z"/>
	<path class="st3" d="M65.7,11.3c-2,2.8-4.6,4.3-5.7,3.4c-1.1-0.9-0.4-3.9,1.7-6.6c2-2.8,4.6-4.3,5.7-3.4
		C68.5,5.6,67.7,8.6,65.7,11.3z"/>
	<path class="st3" d="M83.4,27.2c-2,2.8-4.6,4.3-5.7,3.4c-1.1-0.9-0.4-3.9,1.7-6.6s4.6-4.3,5.7-3.4C86.2,21.4,85.4,24.4,83.4,27.2z"
		/>
	<path class="st3" d="M155.9,16.6c-2,2.8-4.6,4.3-5.7,3.4c-1.1-0.9-0.4-3.9,1.7-6.6s4.6-4.3,5.7-3.4
		C158.7,10.9,157.9,13.8,155.9,16.6z"/>
	<path class="st3" d="M92.6,27.7c-0.5,3.5-2,6.1-3.4,5.9s-2.2-3.2-1.7-6.6c0.5-3.5,2-6.1,3.4-5.9S93.1,24.2,92.6,27.7z"/>
	<path class="st4" d="M122.3,40.9c-2,2.8-4.6,4.3-5.7,3.4c-1.1-0.9-0.4-3.9,1.7-6.6c2-2.8,4.6-4.3,5.7-3.4
		C125.1,35.1,124.3,38.1,122.3,40.9z"/>
	<path class="st4" d="M133.5,38.8c-2,2.8-4.6,4.3-5.7,3.4c-1.1-0.9-0.4-3.9,1.7-6.6c2-2.8,4.6-4.3,5.7-3.4
		C136.3,33.1,135.5,36.1,133.5,38.8z"/>
	<path class="st4" d="M125.9,25.2c-2.9-1.8-4.6-4.3-3.8-5.6c0.7-1.3,3.7-0.8,6.5,1s4.6,4.3,3.8,5.6C131.7,27.5,128.8,27,125.9,25.2z
		"/>
	<path class="st3" d="M34.4,23.1c-2.6-2.2-4.1-4.9-3.2-6c0.9-1.2,3.7-0.3,6.4,1.8s4.1,4.9,3.2,6C39.9,26.1,37.1,25.3,34.4,23.1z"/>
	<path class="st3" d="M63.7,41.4c3-1.6,5.9-1.9,6.6-0.6c0.7,1.3-1.2,3.7-4.2,5.3c-3,1.6-5.9,1.9-6.6,0.6
		C58.9,45.4,60.8,43.1,63.7,41.4z"/>
	<path class="st3" d="M102.8,9.8c3.2-1,6.1-0.7,6.6,0.7s-1.9,3.4-5.1,4.4c-3.2,1-6.1,0.7-6.6-0.7S99.5,10.8,102.8,9.8z"/>
	<path class="st3" d="M96.9,39.9c3.2-1,6.1-0.7,6.6,0.7s-1.9,3.4-5.1,4.4s-6.1,0.7-6.6-0.7S93.7,41,96.9,39.9z"/>
</g>
</svg>
