<?xml version="1.0" encoding="utf-8"?>
<!-- Generator: Avocode 2.4.3-3630f5a - http://avocode.com -->
<svg height="34" width="35" xmlns:xlink="http://www.w3.org/1999/xlink" xmlns="http://www.w3.org/2000/svg" viewBox="0 0 35 34">
    <path fill="#ffffff" fill-rule="evenodd" d="M 17.57 33.9 C 8.22 33.9 0.62 26.32 0.62 17 C 0.62 7.68 8.22 0.1 17.57 0.1 C 26.92 0.1 34.52 7.68 34.52 17 C 34.52 26.32 26.92 33.9 17.57 33.9 Z M 17.57 3.6 C 10.15 3.6 4.12 9.61 4.12 17 C 4.12 24.39 10.15 30.4 17.57 30.4 C 24.98 30.4 31.02 24.39 31.02 17 C 31.02 9.61 24.98 3.6 17.57 3.6 Z M 17.57 27.36 C 11.84 27.36 7.17 22.71 7.17 17 C 7.17 11.29 11.84 6.64 17.57 6.64 C 23.3 6.64 27.96 11.29 27.96 17 C 27.96 22.71 23.3 27.36 17.57 27.36 Z M 17.57 9.93 C 13.66 9.93 10.47 13.1 10.47 17 C 10.47 20.9 13.66 24.07 17.57 24.07 C 21.48 24.07 24.66 20.9 24.66 17 C 24.66 13.1 21.48 9.93 17.57 9.93 Z M 17.57 21.03 C 15.34 21.03 13.53 19.22 13.53 17 C 13.53 14.78 15.34 12.97 17.57 12.97 C 19.8 12.97 21.61 14.78 21.61 17 C 21.61 19.22 19.8 21.03 17.57 21.03 Z" />
</svg>